<svg version="1.1" id="Layer_1" xmlns="http://www.w3.org/2000/svg" xmlns:xlink="http://www.w3.org/1999/xlink" x="0px" y="0px"
	 width="100%" viewBox="0 0 200 200" enable-background="new 0 0 200 200" xml:space="preserve">
<path fill="#039BE5" opacity="1.000000" stroke="none" 
	d="
M1.000000,145.000000 
	C1.000000,114.979103 1.000000,84.958214 1.468616,54.475723 
	C68.291489,54.009422 134.645737,54.004711 201.000000,54.000000 
	C201.000000,84.354225 201.000000,114.708458 200.556610,145.544189 
	C197.746735,146.022202 195.380234,146.018738 192.719650,145.715347 
	C190.448730,145.276749 188.471924,145.017548 186.495041,145.016876 
	C124.663361,144.995728 62.831680,144.999786 1.000000,145.000000 
M139.614883,112.984833 
	C139.816223,112.941826 140.017578,112.898827 140.637741,112.906723 
	C140.637741,112.906723 140.996109,113.129349 141.151215,113.829964 
	C144.251343,115.157799 147.519196,118.142029 149.979675,112.965172 
	C149.979675,112.965172 149.943512,112.952560 150.556305,112.916183 
	C151.362411,112.723495 152.405869,112.111115 152.934052,112.409836 
	C155.384796,113.795845 157.692657,115.434494 160.537430,117.301483 
	C160.751801,115.428894 160.878616,114.321037 161.447403,113.026016 
	C161.447403,113.026016 161.921066,112.949043 162.569565,112.749176 
	C163.747711,112.136986 164.925873,111.524796 166.782043,111.230896 
	C170.064026,111.756203 173.346008,112.281509 177.420334,112.918221 
	C182.689392,112.473076 184.171341,110.419518 184.045135,103.738205 
	C183.877045,94.840752 178.353592,90.535522 170.117096,92.721443 
	C168.964890,93.027237 167.287415,92.905876 166.357819,92.258003 
	C157.146179,85.838211 148.956772,93.324165 140.295410,94.057747 
	C140.176712,94.067802 140.106796,94.653778 139.424347,95.252586 
	C137.986237,96.840607 136.548126,98.428635 134.520081,100.214272 
	C133.723572,99.253342 132.771576,98.381935 132.157822,97.315804 
	C129.669159,92.992821 125.465462,92.424217 121.424065,93.296890 
	C118.065529,94.022110 113.622803,94.802696 114.083626,99.971458 
	C114.083626,99.971458 114.286606,100.195717 113.632820,100.384872 
	C113.163971,101.626183 112.695122,102.867493 112.226280,104.108803 
	C109.950890,101.653488 109.317818,100.690948 108.833229,99.658699 
	C105.767677,93.128624 105.783203,93.135490 98.762245,95.874718 
	C98.166695,96.107071 97.452766,96.036026 96.016167,95.921394 
	C85.996429,92.835075 78.305862,96.353249 81.555984,112.752930 
	C83.076904,112.752930 84.625092,112.752930 86.650421,112.752930 
	C86.650421,109.792450 86.161484,107.026993 86.803551,104.555344 
	C87.326797,102.541092 88.989197,99.579338 90.523422,99.326691 
	C93.847839,98.779236 94.730392,101.796913 94.799408,104.688606 
	C94.862068,107.313805 94.812668,109.941689 94.812668,113.011467 
	C96.599350,113.011467 97.874588,113.011467 99.905640,112.827858 
	C100.259842,111.013725 100.617645,109.200287 100.967346,107.385284 
	C101.409576,105.090057 101.845200,102.793564 102.347191,100.615028 
	C102.347191,100.615028 102.344048,100.748489 102.265182,101.276039 
	C102.506966,101.519058 102.748749,101.762077 103.000000,102.000000 
	C103.000000,102.000000 102.992287,102.008423 102.960739,102.685562 
	C103.559044,103.480247 104.157341,104.274940 105.060646,105.731003 
	C107.397591,108.108551 106.329292,113.773293 112.670654,112.963287 
	C113.154617,112.307693 113.638588,111.652100 114.311325,110.821465 
	C114.311325,110.821465 114.252991,110.570724 114.762238,110.210457 
	C115.513527,110.400002 116.432808,110.376175 116.988724,110.813866 
	C120.483269,113.565208 124.099731,113.857033 128.044434,111.833809 
	C129.163315,111.259941 130.505707,111.121780 132.402374,110.688492 
	C133.941711,111.113365 135.481064,111.538239 137.062531,112.555214 
	C137.708008,112.713921 138.353500,112.872627 139.614883,112.984833 
M62.059601,120.730682 
	C62.059601,120.730682 62.214386,120.721207 62.163383,121.473885 
	C62.827106,121.860130 63.490833,122.246368 64.154564,122.632614 
	C64.391899,121.647026 64.629234,120.661438 64.883110,119.302032 
	C64.883110,119.302032 65.067169,118.976250 65.618370,118.448120 
	C66.041176,109.096130 66.666740,99.746429 66.772331,90.390862 
	C66.807365,87.286575 65.505814,84.167213 64.924858,81.105629 
	C64.924858,81.105629 64.848289,81.199028 64.885155,80.586304 
	C64.546417,80.187134 64.207687,79.787956 63.868946,79.388786 
	C63.577759,79.859261 63.286572,80.329742 62.522999,80.943138 
	C62.213680,81.062057 61.894035,81.136856 61.088264,81.165543 
	C60.950478,81.235466 60.812691,81.305389 60.674904,81.375320 
	C60.850693,81.600136 61.026485,81.824951 61.248775,82.701767 
	C61.178120,83.130463 61.107464,83.559166 60.497467,84.391762 
	C59.675831,85.944832 58.854198,87.497902 57.848656,89.439041 
	C57.688015,89.686531 57.475269,89.875313 57.062412,89.404968 
	C57.005489,88.996956 56.948570,88.588951 56.881626,87.469681 
	C56.337879,87.049545 55.794136,86.629402 55.250393,86.209267 
	C54.815006,87.107376 54.379620,88.005478 53.430820,89.427711 
	C52.508446,90.678726 51.586075,91.929741 50.314404,93.096458 
	C50.314404,93.096458 50.033005,92.873001 49.942184,92.292038 
	C49.284161,92.511398 48.626133,92.730759 47.669666,93.284775 
	C47.470554,93.507904 47.280533,93.738533 46.497978,94.459427 
	C46.632721,96.648933 46.767464,98.838440 47.010757,101.673859 
	C46.981865,102.108009 46.952969,102.542160 46.406166,103.497925 
	C46.781479,104.958366 47.156796,106.418816 47.798893,107.879791 
	C47.798893,107.879791 47.983986,108.071922 48.075153,108.702202 
	C49.002686,108.297951 49.930218,107.893692 50.822815,107.230972 
	C50.822815,107.230972 50.984993,107.026703 51.592461,106.452248 
	C51.823692,102.677025 52.054924,98.901810 52.316849,94.625481 
	C52.987152,98.438652 53.559319,101.693542 54.235573,104.845596 
	C54.235573,104.845596 54.374256,104.892258 54.092659,105.738716 
	C54.521290,108.193275 52.262177,111.382538 56.493069,112.944466 
	C56.493069,112.944466 56.931976,112.944977 57.631275,112.896431 
	C58.093052,111.934731 58.554825,110.973030 59.580902,110.547279 
	C60.065277,113.042717 60.549652,115.538155 61.245041,118.590630 
	C61.327702,118.978477 61.410362,119.366325 61.009205,120.008553 
	C61.409794,120.260460 61.810383,120.512375 62.059601,120.730682 
M79.150665,99.647095 
	C79.128967,96.816460 79.295784,93.965408 78.992523,91.165268 
	C78.871681,90.049553 77.711502,89.046410 77.024467,87.992020 
	C76.266304,89.001427 74.884384,89.991272 74.852028,91.023438 
	C74.653824,97.344574 74.808540,103.675758 74.747360,110.002640 
	C74.716316,113.212029 76.177505,113.631592 79.163826,112.399628 
	C79.163826,108.454041 79.163826,104.483231 79.150665,99.647095 
z"/>
<path fill="#FEFFFE" opacity="1.000000" stroke="none" 
	d="
M201.000000,148.000000 
	C201.000000,165.641373 201.000000,183.282761 201.000000,200.962067 
	C134.454071,200.962067 67.908119,200.962067 1.000000,200.962067 
	C1.000000,183.647446 1.000000,166.292389 1.467990,148.496063 
	C68.290649,148.036545 134.645325,148.018280 201.000000,148.000000 
z"/>
<path fill="#FEFFFF" opacity="1.000000" stroke="none" 
	d="
M1.000000,53.000000 
	C1.000000,35.691643 1.000000,18.383284 1.000000,1.037463 
	C67.545616,1.037463 134.091263,1.037463 201.000000,1.037463 
	C201.000000,18.019173 201.000000,35.040928 200.531433,52.520935 
	C133.708572,52.986126 67.354286,52.993061 1.000000,53.000000 
z"/>
<path fill="#1E8FC2" opacity="1.000000" stroke="none" 
	d="
M201.000000,147.666672 
	C134.645325,148.018280 68.290649,148.036545 1.467990,148.027405 
	C1.000000,147.555557 1.000000,147.111099 1.468531,146.345734 
	C65.629288,146.021637 129.321503,146.018448 193.013733,146.015259 
	C195.380234,146.018738 197.746735,146.022202 200.556610,146.012848 
	C201.000000,146.444443 201.000000,146.888901 201.000000,147.666672 
z"/>
<path fill="#199BD8" opacity="1.000000" stroke="none" 
	d="
M1.000000,53.250000 
	C67.354286,52.993061 133.708572,52.986126 200.531433,52.989594 
	C201.000000,53.000000 201.000000,53.500000 201.000000,53.750000 
	C134.645737,54.004711 68.291489,54.009422 1.468616,54.007065 
	C1.000000,54.000000 1.000000,53.500000 1.000000,53.250000 
z"/>
<path fill="#00A0F0" opacity="1.000000" stroke="none" 
	d="
M192.719650,145.715332 
	C129.321503,146.018448 65.629288,146.021637 1.468531,146.012421 
	C1.000000,146.000000 1.000000,145.500000 1.000000,145.250000 
	C62.831680,144.999786 124.663361,144.995728 186.495041,145.016876 
	C188.471924,145.017548 190.448730,145.276749 192.719650,145.715332 
z"/>
<path fill="#0C98DD" opacity="1.000000" stroke="none" 
	d="
M140.014114,94.970947 
	C140.106796,94.653778 140.176712,94.067802 140.295410,94.057747 
	C148.956772,93.324165 157.146179,85.838211 166.357819,92.258003 
	C167.287415,92.905876 168.964890,93.027237 170.117096,92.721443 
	C178.353592,90.535522 183.877045,94.840752 184.045135,103.738205 
	C184.171341,110.419518 182.689392,112.473076 177.253723,112.595695 
	C182.335464,108.433250 183.837479,103.193283 180.994308,98.642494 
	C178.253677,94.255852 172.170013,92.483086 167.983673,95.473038 
	C165.859375,96.990242 164.658081,99.799820 162.788086,102.021118 
	C162.369049,102.019363 162.201447,102.021637 161.688873,102.013901 
	C160.884293,101.995445 160.424698,101.987007 160.128784,101.633698 
	C160.518326,99.536652 160.744171,97.784470 161.347855,96.017776 
	C162.749817,95.428856 163.773941,94.854454 164.798080,94.280045 
	C164.645004,93.854225 164.491928,93.428398 164.338852,93.002579 
	C162.556839,93.002579 160.774841,93.002579 158.806900,92.754349 
	C158.032501,92.357330 157.444016,92.208549 156.508789,92.031288 
	C155.382599,92.336548 154.603149,92.670280 153.545486,93.047913 
	C152.974792,93.406837 152.682327,93.721878 152.389847,94.036919 
	C152.864563,94.353745 153.339294,94.670578 153.876953,95.358704 
	C153.649948,99.108574 152.954102,102.513191 153.168793,105.859383 
	C153.463120,110.446335 155.336685,114.029594 161.005447,113.213181 
	C160.878616,114.321037 160.751801,115.428894 160.537430,117.301483 
	C157.692657,115.434494 155.384796,113.795845 152.934052,112.409836 
	C152.405869,112.111115 151.362411,112.723495 150.277740,112.511887 
	C150.501923,107.599434 147.118820,109.166496 145.024399,109.064255 
	C141.531387,108.893745 139.089722,107.243866 139.079102,103.821793 
	C139.068771,100.495590 141.810043,99.779327 144.744659,99.966911 
	C145.896866,100.040558 147.223404,100.307487 148.176056,99.859779 
	C149.433121,99.269020 150.400421,98.061745 151.492279,97.119492 
	C150.138443,96.376633 148.846313,95.188545 147.416992,94.990471 
	C144.994965,94.654839 142.486343,94.944267 140.014114,94.970947 
z"/>
<path fill="#DEF7FB" opacity="1.000000" stroke="none" 
	d="
M163.039520,102.025139 
	C164.658081,99.799820 165.859375,96.990242 167.983673,95.473038 
	C172.170013,92.483086 178.253677,94.255852 180.994308,98.642494 
	C183.837479,103.193283 182.335464,108.433250 176.857544,112.539993 
	C173.346008,112.281509 170.064026,111.756203 166.320160,110.740738 
	C164.918686,107.508759 163.979111,104.766953 163.039520,102.025139 
M169.286804,106.972466 
	C171.536301,107.092064 173.940186,107.717621 175.964691,107.099869 
	C176.863617,106.825554 177.629501,103.921402 177.346222,102.420349 
	C176.744034,99.229294 174.100311,98.180267 171.236786,99.174881 
	C167.676376,100.411560 167.119736,103.135429 169.286804,106.972466 
z"/>
<path fill="#DAF8FA" opacity="1.000000" stroke="none" 
	d="
M99.149834,113.011467 
	C97.874588,113.011467 96.599350,113.011467 94.812668,113.011467 
	C94.812668,109.941689 94.862068,107.313805 94.799408,104.688606 
	C94.730392,101.796913 93.847839,98.779236 90.523422,99.326691 
	C88.989197,99.579338 87.326797,102.541092 86.803551,104.555344 
	C86.161484,107.026993 86.650421,109.792450 86.650421,112.752930 
	C84.625092,112.752930 83.076904,112.752930 81.555984,112.752930 
	C78.305862,96.353249 85.996429,92.835075 96.600998,96.351761 
	C97.840492,102.191910 98.495163,107.601685 99.149834,113.011467 
z"/>
<path fill="#DFF9FA" opacity="1.000000" stroke="none" 
	d="
M139.719238,95.111771 
	C142.486343,94.944267 144.994965,94.654839 147.416992,94.990471 
	C148.846313,95.188545 150.138443,96.376633 151.492279,97.119492 
	C150.400421,98.061745 149.433121,99.269020 148.176056,99.859779 
	C147.223404,100.307487 145.896866,100.040558 144.744659,99.966911 
	C141.810043,99.779327 139.068771,100.495590 139.079102,103.821793 
	C139.089722,107.243866 141.531387,108.893745 145.024399,109.064255 
	C147.118820,109.166496 150.501923,107.599434 149.971344,112.530075 
	C149.943512,112.952560 149.979675,112.965172 149.523804,112.997070 
	C146.377335,113.062431 143.686722,113.095894 140.996109,113.129349 
	C140.996109,113.129349 140.637741,112.906723 140.288849,112.653358 
	C139.613693,112.293297 139.287460,112.186607 138.949799,112.044701 
	C138.938385,112.009491 138.873932,112.046066 138.692810,111.753006 
	C134.758102,108.424240 134.648590,104.305313 135.110031,100.016663 
	C136.548126,98.428635 137.986237,96.840607 139.719238,95.111771 
z"/>
<path fill="#C2ECF7" opacity="1.000000" stroke="none" 
	d="
M61.564068,81.167534 
	C61.894035,81.136856 62.213680,81.062057 63.064060,80.957817 
	C64.019508,81.048004 64.433899,81.123520 64.848289,81.199028 
	C64.848289,81.199028 64.924858,81.105629 64.897202,81.546127 
	C64.935425,94.316498 65.001297,106.646378 65.067169,118.976250 
	C65.067169,118.976250 64.883110,119.302032 64.606033,119.597076 
	C63.624100,120.168488 62.919243,120.444847 62.214386,120.721207 
	C62.214386,120.721207 62.059601,120.730682 62.113041,120.526443 
	C62.014935,120.046417 61.790447,119.857071 61.493023,119.754173 
	C61.410362,119.366325 61.327702,118.978477 61.219521,117.845108 
	C61.141605,106.062347 61.089211,95.025101 61.036812,83.987862 
	C61.107464,83.559166 61.178120,83.130463 61.349831,82.169006 
	C61.450886,81.636246 61.564068,81.167534 61.564068,81.167534 
z"/>
<path fill="#E6F9F9" opacity="1.000000" stroke="none" 
	d="
M114.252991,110.570724 
	C114.252991,110.570724 114.311325,110.821465 113.936020,111.007919 
	C113.042664,111.771706 112.524605,112.349030 112.006538,112.926346 
	C106.329292,113.773293 107.397591,108.108551 104.931503,105.080513 
	C104.198997,103.622826 103.595642,102.815620 102.992287,102.008423 
	C102.992287,102.008423 103.000000,102.000000 102.976059,101.748367 
	C102.749420,101.247314 102.546738,100.997902 102.344048,100.748489 
	C102.344048,100.748489 102.347191,100.615028 102.259094,100.219986 
	C101.948395,98.634033 101.725777,97.443138 101.458900,96.015457 
	C108.730156,95.667938 106.029068,104.486572 111.781075,106.059120 
	C112.576248,104.198257 113.431427,102.196991 114.286606,100.195717 
	C114.286606,100.195717 114.083626,99.971458 114.455994,99.898354 
	C116.520332,98.465797 118.212296,97.106346 119.945183,96.075935 
	C120.314766,97.212181 120.643433,98.019394 120.666321,98.976288 
	C119.274529,101.033493 118.188515,102.940994 116.883881,105.149811 
	C115.861168,107.157654 115.057083,108.864189 114.252991,110.570724 
z"/>
<path fill="#36A0D4" opacity="1.000000" stroke="none" 
	d="
M119.904259,95.746895 
	C118.212296,97.106346 116.520332,98.465797 114.551552,100.013023 
	C113.622803,94.802696 118.065529,94.022110 121.424065,93.296890 
	C125.465462,92.424217 129.669159,92.992821 132.157822,97.315804 
	C132.771576,98.381935 133.723572,99.253342 134.815063,100.115463 
	C134.648590,104.305313 134.758102,108.424240 138.383575,111.757233 
	C137.843796,112.024055 137.432098,111.993584 137.020401,111.963120 
	C135.481064,111.538239 133.941711,111.113365 132.123901,110.363464 
	C132.028687,108.273888 132.211960,106.509354 132.475098,103.975914 
	C130.031830,104.939178 128.130600,105.688736 126.158035,106.006432 
	C126.040596,104.994064 125.994469,104.413559 126.114487,103.523346 
	C127.923302,102.357147 129.565948,101.500671 131.447540,100.519615 
	C128.549179,95.788849 125.071053,93.706238 119.904259,95.746895 
z"/>
<path fill="#EDFEFA" opacity="1.000000" stroke="none" 
	d="
M79.157242,100.079758 
	C79.163826,104.483231 79.163826,108.454041 79.163826,112.399628 
	C76.177505,113.631592 74.716316,113.212029 74.747360,110.002640 
	C74.808540,103.675758 74.653824,97.344574 74.852028,91.023438 
	C74.884384,89.991272 76.266304,89.001427 77.024467,87.992020 
	C77.711502,89.046410 78.871681,90.049553 78.992523,91.165268 
	C79.295784,93.965408 79.128967,96.816460 79.157242,100.079758 
z"/>
<path fill="#D2F4F8" opacity="1.000000" stroke="none" 
	d="
M126.229355,106.438301 
	C128.130600,105.688736 130.031830,104.939178 132.475098,103.975914 
	C132.211960,106.509354 132.028687,108.273888 131.795502,110.411118 
	C130.505707,111.121780 129.163315,111.259941 128.044434,111.833809 
	C124.099731,113.857033 120.483269,113.565208 116.988724,110.813866 
	C116.432808,110.376175 115.513527,110.400002 114.507614,110.390594 
	C115.057083,108.864189 115.861168,107.157654 117.177521,105.314941 
	C120.319305,107.069885 122.526894,111.821663 126.229355,106.438301 
z"/>
<path fill="#E8FCFA" opacity="1.000000" stroke="none" 
	d="
M153.823715,93.004028 
	C154.603149,92.670280 155.382599,92.336548 156.548859,92.443726 
	C156.966476,93.714859 156.659195,94.846619 157.085266,95.324287 
	C159.189133,97.683067 159.496780,99.438896 157.322891,102.348679 
	C156.156113,103.910439 155.584656,107.903099 159.916031,109.007568 
	C160.858139,109.247795 161.266739,111.580223 161.921066,112.949043 
	C161.921066,112.949043 161.447403,113.026016 161.226425,113.119598 
	C155.336685,114.029594 153.463120,110.446335 153.168793,105.859383 
	C152.954102,102.513191 153.649948,99.108574 153.939606,95.030273 
	C153.900787,93.888374 153.862259,93.446205 153.823715,93.004028 
z"/>
<path fill="#36A0D4" opacity="1.000000" stroke="none" 
	d="
M113.959717,100.290298 
	C113.431427,102.196991 112.576248,104.198257 111.781075,106.059120 
	C106.029068,104.486572 108.730156,95.667938 101.458900,96.015457 
	C101.725777,97.443138 101.948395,98.634033 102.227341,100.161270 
	C101.845200,102.793564 101.409576,105.090057 100.967346,107.385284 
	C100.617645,109.200287 100.259842,111.013725 99.527740,112.919662 
	C98.495163,107.601685 97.840492,102.191910 96.989830,96.444031 
	C97.452766,96.036026 98.166695,96.107071 98.762245,95.874718 
	C105.783203,93.135490 105.767677,93.128624 108.833229,99.658699 
	C109.317818,100.690948 109.950890,101.653488 112.226280,104.108803 
	C112.695122,102.867493 113.163971,101.626183 113.959717,100.290298 
z"/>
<path fill="#329FCE" opacity="1.000000" stroke="none" 
	d="
M162.245316,112.849106 
	C161.266739,111.580223 160.858139,109.247795 159.916031,109.007568 
	C155.584656,107.903099 156.156113,103.910439 157.322891,102.348679 
	C159.496780,99.438896 159.189133,97.683067 157.085266,95.324287 
	C156.659195,94.846619 156.966476,93.714859 156.895599,92.472206 
	C157.444016,92.208549 158.032501,92.357330 158.805756,93.002914 
	C158.990540,93.499718 159.002747,93.996780 159.101074,94.222015 
	C159.391907,94.729713 159.651459,94.921341 159.989044,95.011063 
	C160.000000,95.000000 159.977768,95.022324 160.085922,95.241287 
	C160.394562,95.732285 160.655991,95.918991 160.985168,96.015015 
	C160.991989,96.009659 160.970032,96.032288 160.970032,96.032288 
	C160.744171,97.784470 160.518326,99.536652 159.909668,101.789360 
	C159.679688,102.863190 159.832504,103.436493 159.988495,104.254013 
	C159.991684,104.498230 159.982391,104.987679 159.743103,105.179611 
	C159.828979,105.884743 160.154144,106.397957 160.479309,106.911163 
	C160.987000,106.274002 161.494690,105.636848 162.002716,104.749336 
	C162.001358,104.332092 161.999649,104.165199 162.005585,103.669113 
	C162.020111,102.901260 162.026978,102.462585 162.033829,102.023918 
	C162.201447,102.021637 162.369049,102.019363 162.788086,102.021118 
	C163.979111,104.766953 164.918686,107.508759 165.981140,110.581589 
	C164.925873,111.524796 163.747711,112.136986 162.245316,112.849106 
z"/>
<path fill="#1197D9" opacity="1.000000" stroke="none" 
	d="
M65.342773,118.712189 
	C65.001297,106.646378 64.935425,94.316498 64.842438,81.520683 
	C65.505814,84.167213 66.807365,87.286575 66.772331,90.390862 
	C66.666740,99.746429 66.041176,109.096130 65.342773,118.712189 
z"/>
<path fill="#BDECFA" opacity="1.000000" stroke="none" 
	d="
M46.924072,102.976311 
	C46.952969,102.542160 46.981865,102.108009 47.052841,100.917587 
	C47.096481,98.099754 47.098038,96.038200 47.099598,93.976646 
	C47.280533,93.738533 47.470554,93.507904 48.163822,93.143387 
	C49.116322,92.959007 49.574661,92.916000 50.033005,92.873001 
	C50.033005,92.873001 50.314404,93.096458 50.559746,93.583817 
	C50.865051,98.389687 50.925022,102.708191 50.984993,107.026703 
	C50.984993,107.026703 50.822815,107.230972 50.491798,107.488037 
	C49.435184,107.854042 48.709583,107.962982 47.983986,108.071922 
	C47.983986,108.071922 47.798893,107.879791 47.566986,107.476334 
	C47.198074,105.707352 47.061073,104.341835 46.924072,102.976311 
z"/>
<path fill="#E2FEFC" opacity="1.000000" stroke="none" 
	d="
M56.891647,88.180939 
	C56.948570,88.588951 57.005489,88.996956 57.048889,90.163696 
	C57.000904,98.263283 56.966438,105.604126 56.931976,112.944977 
	C56.931976,112.944977 56.493069,112.944466 56.060474,112.610779 
	C55.210007,109.815475 54.792130,107.353867 54.374256,104.892258 
	C54.374256,104.892258 54.235573,104.845596 54.272018,104.474098 
	C54.331161,101.811478 54.353863,99.520355 54.520760,97.073982 
	C54.701897,96.782478 54.797794,96.628868 54.763840,96.513481 
	C54.687214,96.253075 54.546391,96.011543 54.421032,95.439278 
	C54.404713,94.470451 54.399048,93.824684 54.582817,92.877365 
	C54.843674,91.380432 54.915089,90.185059 55.182507,88.808296 
	C55.882885,88.478249 56.387264,88.329590 56.891647,88.180939 
z"/>
<path fill="#1197D9" opacity="1.000000" stroke="none" 
	d="
M60.767143,84.189812 
	C61.089211,95.025101 61.141605,106.062347 61.114014,117.566589 
	C60.549652,115.538155 60.065277,113.042717 59.290443,109.809586 
	C58.677509,102.398254 58.355038,95.724609 58.032566,89.050972 
	C58.854198,87.497902 59.675831,85.944832 60.767143,84.189812 
z"/>
<path fill="#2393C3" opacity="1.000000" stroke="none" 
	d="
M57.940613,89.245010 
	C58.355038,95.724609 58.677509,102.398254 59.008293,109.541611 
	C58.554825,110.973030 58.093052,111.934731 57.281624,112.920700 
	C56.966438,105.604126 57.000904,98.263283 57.122890,90.463913 
	C57.475269,89.875313 57.688015,89.686531 57.940613,89.245010 
z"/>
<path fill="#1E97CF" opacity="1.000000" stroke="none" 
	d="
M54.393383,93.178917 
	C54.399048,93.824684 54.404713,94.470451 54.321060,95.803177 
	C54.280010,96.736504 54.328285,96.982872 54.376564,97.229233 
	C54.353863,99.520355 54.331161,101.811478 54.219971,104.525513 
	C53.559319,101.693542 52.987152,98.438652 52.316849,94.625481 
	C52.054924,98.901810 51.823692,102.677025 51.288727,106.739471 
	C50.925022,102.708191 50.865051,98.389687 50.734390,93.625969 
	C51.586075,91.929741 52.508446,90.678726 53.708378,89.197075 
	C53.985935,88.966438 54.020306,89.031364 54.006264,89.450089 
	C54.125938,90.972183 54.259659,92.075546 54.393383,93.178917 
z"/>
<path fill="#0C98DD" opacity="1.000000" stroke="none" 
	d="
M141.073669,113.479660 
	C143.686722,113.095894 146.377335,113.062431 149.512909,112.983566 
	C147.519196,118.142029 144.251343,115.157799 141.073669,113.479660 
z"/>
<path fill="#70C8ED" opacity="1.000000" stroke="none" 
	d="
M54.233459,105.315491 
	C54.792130,107.353867 55.210007,109.815475 55.841438,112.597290 
	C52.262177,111.382538 54.521290,108.193275 54.233459,105.315491 
z"/>
<path fill="#1E97CF" opacity="1.000000" stroke="none" 
	d="
M46.798790,94.218033 
	C47.098038,96.038200 47.096481,98.099754 46.998566,100.594627 
	C46.767464,98.838440 46.632721,96.648933 46.798790,94.218033 
z"/>
<path fill="#1197D9" opacity="1.000000" stroke="none" 
	d="
M62.188885,121.097549 
	C62.919243,120.444847 63.624100,120.168488 64.597763,119.783989 
	C64.629234,120.661438 64.391899,121.647026 64.154556,122.632614 
	C63.490833,122.246368 62.827106,121.860130 62.188885,121.097549 
z"/>
<path fill="#1197D9" opacity="1.000000" stroke="none" 
	d="
M56.886635,87.825310 
	C56.387264,88.329590 55.882885,88.478249 54.940083,88.798157 
	C54.501659,88.969398 54.020306,89.031364 54.020306,89.031364 
	C54.020306,89.031364 53.985935,88.966438 53.965088,88.935013 
	C54.379620,88.005478 54.815006,87.107376 55.250389,86.209267 
	C55.794136,86.629402 56.337879,87.049545 56.886635,87.825310 
z"/>
<path fill="#36A0D4" opacity="1.000000" stroke="none" 
	d="
M102.976517,102.346992 
	C103.595642,102.815620 104.198997,103.622826 104.778999,104.749825 
	C104.157341,104.274940 103.559044,103.480247 102.976517,102.346992 
z"/>
<path fill="#1E97CF" opacity="1.000000" stroke="none" 
	d="
M46.665119,103.237122 
	C47.061073,104.341835 47.198074,105.707352 47.433594,107.476067 
	C47.156796,106.418816 46.781479,104.958366 46.665119,103.237122 
z"/>
<path fill="#1E97CF" opacity="1.000000" stroke="none" 
	d="
M48.029572,108.387062 
	C48.709583,107.962982 49.435184,107.854042 50.509262,107.617271 
	C49.930218,107.893692 49.002686,108.297951 48.029572,108.387062 
z"/>
<path fill="#1E97CF" opacity="1.000000" stroke="none" 
	d="
M49.987595,92.582520 
	C49.574661,92.916000 49.116322,92.959007 48.313042,92.976059 
	C48.626133,92.730759 49.284161,92.511398 49.987595,92.582520 
z"/>
<path fill="#0C98DD" opacity="1.000000" stroke="none" 
	d="
M137.041473,112.259163 
	C137.432098,111.993584 137.843796,112.024055 138.564713,112.050293 
	C138.873932,112.046066 138.938385,112.009491 138.957825,112.282364 
	C138.977280,112.555229 138.998978,113.031334 138.998978,113.031334 
	C138.353500,112.872627 137.708008,112.713921 137.041473,112.259163 
z"/>
<path fill="#1197D9" opacity="1.000000" stroke="none" 
	d="
M64.866722,80.892670 
	C64.433899,81.123520 64.019508,81.048004 63.300251,80.886360 
	C63.286572,80.329742 63.577759,79.859261 63.868950,79.388786 
	C64.207687,79.787956 64.546417,80.187134 64.866722,80.892670 
z"/>
<path fill="#D2F4F8" opacity="1.000000" stroke="none" 
	d="
M112.338593,112.944817 
	C112.524605,112.349030 113.042664,111.771706 113.841644,111.095444 
	C113.638588,111.652100 113.154617,112.307693 112.338593,112.944817 
z"/>
<path fill="#1197D9" opacity="1.000000" stroke="none" 
	d="
M61.251114,119.881363 
	C61.790447,119.857071 62.014935,120.046417 62.188725,120.543251 
	C61.810383,120.512375 61.409794,120.260460 61.251114,119.881363 
z"/>
<path fill="#1197D9" opacity="1.000000" stroke="none" 
	d="
M61.326164,81.166534 
	C61.564068,81.167534 61.450886,81.636246 61.326580,81.843002 
	C61.026485,81.824951 60.850693,81.600136 60.674904,81.375320 
	C60.812691,81.305389 60.950478,81.235466 61.326164,81.166534 
z"/>
<path fill="#36A0D4" opacity="1.000000" stroke="none" 
	d="
M139.306931,113.008087 
	C138.998978,113.031334 138.977280,112.555229 138.969238,112.317566 
	C139.287460,112.186607 139.613693,112.293297 140.079437,112.627907 
	C140.017578,112.898827 139.816223,112.941826 139.306931,113.008087 
z"/>
<path fill="#36A0D4" opacity="1.000000" stroke="none" 
	d="
M102.304611,101.012268 
	C102.546738,100.997902 102.749420,101.247314 102.971321,101.750916 
	C102.748749,101.762077 102.506966,101.519058 102.304611,101.012268 
z"/>
<path fill="#039BE5" opacity="1.000000" stroke="none" 
	d="
M159.002747,93.996780 
	C159.002747,93.996780 158.990540,93.499718 158.991684,93.251144 
	C160.774841,93.002579 162.556839,93.002579 164.338852,93.002579 
	C164.491928,93.428398 164.645004,93.854225 164.798080,94.280045 
	C163.773941,94.854454 162.749817,95.428856 161.347855,96.017776 
	C160.970032,96.032288 160.991989,96.009659 160.884964,95.789635 
	C160.578979,95.288109 160.312256,95.105682 159.977768,95.022324 
	C159.977768,95.022324 160.000000,95.000000 159.889679,94.786644 
	C159.585251,94.293900 159.326370,94.101730 159.002747,93.996780 
z"/>
<path fill="#039BE5" opacity="1.000000" stroke="none" 
	d="
M159.985321,104.009796 
	C159.832504,103.436493 159.679688,102.863190 159.745972,102.134232 
	C160.424698,101.987007 160.884293,101.995445 161.688873,102.013901 
	C162.026978,102.462585 162.020111,102.901260 161.670563,103.670029 
	C160.880356,104.003349 160.432846,104.006577 159.985321,104.009796 
z"/>
<path fill="#039BE5" opacity="1.000000" stroke="none" 
	d="
M153.545486,93.047913 
	C153.862259,93.446205 153.900787,93.888374 153.876678,94.658981 
	C153.339294,94.670578 152.864563,94.353745 152.389847,94.036919 
	C152.682327,93.721878 152.974792,93.406837 153.545486,93.047913 
z"/>
<path fill="#1C9CD9" opacity="1.000000" stroke="none" 
	d="
M169.040726,106.679642 
	C167.119736,103.135429 167.676376,100.411560 171.236786,99.174881 
	C174.100311,98.180267 176.744034,99.229294 177.346222,102.420349 
	C177.629501,103.921402 176.863617,106.825554 175.964691,107.099869 
	C173.940186,107.717621 171.536301,107.092064 169.040726,106.679642 
z"/>
<path fill="#329FD0" opacity="1.000000" stroke="none" 
	d="
M126.158035,106.006432 
	C122.526894,111.821663 120.319305,107.069885 117.396141,105.013634 
	C118.188515,102.940994 119.274529,101.033493 121.003143,98.940094 
	C124.935005,97.684547 125.308067,98.817871 123.946434,101.613945 
	C123.573112,102.380547 123.873466,103.475220 123.864685,104.419342 
	C124.559235,104.223915 125.253784,104.028488 125.948334,103.833061 
	C125.994469,104.413559 126.040596,104.994064 126.158035,106.006432 
z"/>
<path fill="#F6FDF7" opacity="1.000000" stroke="none" 
	d="
M126.114487,103.523346 
	C125.253784,104.028488 124.559235,104.223915 123.864685,104.419342 
	C123.873466,103.475220 123.573112,102.380547 123.946434,101.613945 
	C125.308067,98.817871 124.935005,97.684547 121.308914,98.790405 
	C120.643433,98.019394 120.314766,97.212181 119.945183,96.075935 
	C125.071053,93.706238 128.549179,95.788849 131.447540,100.519615 
	C129.565948,101.500671 127.923302,102.357147 126.114487,103.523346 
z"/>
<path fill="#039BE5" opacity="1.000000" stroke="none" 
	d="
M162.002396,104.999695 
	C161.494690,105.636848 160.987000,106.274002 160.479309,106.911163 
	C160.154144,106.397957 159.828979,105.884743 160.080902,105.184822 
	C161.106125,104.998634 161.554260,104.999168 162.002396,104.999695 
z"/>
<path fill="#0C98DD" opacity="1.000000" stroke="none" 
	d="
M162.002716,104.749336 
	C161.554260,104.999168 161.106125,104.998634 160.320190,104.992889 
	C159.982391,104.987679 159.991684,104.498230 159.988495,104.254013 
	C160.432846,104.006577 160.880356,104.003349 161.662903,103.999207 
	C161.999649,104.165199 162.001358,104.332092 162.002716,104.749336 
z"/>
<path fill="#0C98DD" opacity="1.000000" stroke="none" 
	d="
M160.085922,95.241287 
	C160.312256,95.105682 160.578979,95.288109 160.878143,95.794983 
	C160.655991,95.918991 160.394562,95.732285 160.085922,95.241287 
z"/>
<path fill="#0C98DD" opacity="1.000000" stroke="none" 
	d="
M159.101074,94.222015 
	C159.326370,94.101730 159.585251,94.293900 159.878723,94.797707 
	C159.651459,94.921341 159.391907,94.729713 159.101074,94.222015 
z"/>
<path fill="#70C8ED" opacity="1.000000" stroke="none" 
	d="
M54.006264,89.450089 
	C54.020306,89.031364 54.501659,88.969398 54.744083,88.979538 
	C54.915089,90.185059 54.843674,91.380432 54.582817,92.877365 
	C54.259659,92.075546 54.125938,90.972183 54.006264,89.450089 
z"/>
<path fill="#70C8ED" opacity="1.000000" stroke="none" 
	d="
M54.520756,97.073982 
	C54.328285,96.982872 54.280010,96.736504 54.331711,96.126236 
	C54.546391,96.011543 54.687214,96.253075 54.763840,96.513481 
	C54.797794,96.628868 54.701897,96.782478 54.520756,97.073982 
z"/>
</svg>